<svg width="606" height="194" viewBox="0 0 606 194" fill="none" xmlns="http://www.w3.org/2000/svg">
<g clip-path="url(#clip0_8939_822)">
<path d="M44.3613 2.88419L56.8063 90.2632H57.14L69.5804 2.88419H113.716V150.371H84.8453V40.477H84.5116L68.0858 150.371H45.8511L29.4254 40.477H29.0917V150.371H0.225586V2.88419H44.3613Z" fill="url(#paint0_linear_8939_822)"/>
<path d="M148.56 2.88419V150.371H117.697V2.88419H148.56Z" fill="url(#paint1_linear_8939_822)"/>
<path d="M198.5 2.88419C207.458 2.88419 214.428 4.91953 219.405 8.97614C224.382 13.0374 228.113 18.4775 230.604 25.2964C233.095 32.1153 234.613 39.9612 235.168 48.8435C235.722 57.7259 236 66.9881 236 76.6255C236 86.2629 235.722 95.5251 235.168 104.407C234.613 113.29 233.095 121.14 230.604 127.955C228.113 134.773 224.382 140.214 219.405 144.275C214.428 148.336 207.458 150.367 198.5 150.367H153.702V2.88419H198.5ZM190.703 122.693C193.687 122.693 196.066 122.177 197.837 121.145C199.604 120.113 200.963 117.942 201.903 114.64C202.843 111.334 203.449 106.654 203.726 100.595C204.003 94.5356 204.14 86.549 204.14 76.6349C204.14 66.7208 203.999 58.7342 203.726 52.675C203.449 46.6159 202.838 41.9356 201.903 38.6293C200.963 35.323 199.604 33.1564 197.837 32.1246C196.066 31.0929 193.687 30.577 190.703 30.577H184.565V122.707H190.703V122.693Z" fill="url(#paint2_linear_8939_822)"/>
<path d="M275.154 2.88419L295.067 93.7711H295.4V2.88419H324.271V150.371H290.423L269.848 59.2782H269.514V150.371H240.643V2.88419H275.154Z" fill="url(#paint3_linear_8939_822)"/>
<path d="M360.272 2.88419V150.371H329.408V2.88419H360.272Z" fill="url(#paint4_linear_8939_822)"/>
<path d="M445.06 70.224V150.371H424.156L423.493 137.357H423.159C422.163 140.528 420.753 143.14 418.929 145.208C417.106 147.272 415.057 148.824 412.792 149.856C410.522 150.887 408.087 151.61 405.493 152.022C402.894 152.435 400.267 152.641 397.611 152.641C389.758 152.641 383.564 151.023 379.028 147.787C374.493 144.551 371.062 139.698 368.74 133.226C366.419 126.754 364.952 118.767 364.341 109.266C363.73 99.7646 363.43 88.8891 363.43 76.6302C363.43 64.3712 364.012 53.2894 365.173 43.788C366.334 34.2866 368.548 26.3 371.809 19.8282C375.071 13.3563 379.578 8.43682 385.331 5.06022C391.079 1.6883 398.495 0 407.565 0C412.984 0 417.99 0.895738 422.581 2.68721C427.168 4.47869 431.125 7.37225 434.443 11.3632C437.762 15.3589 440.361 20.4894 442.24 26.7502C444.12 33.0204 445.06 40.6271 445.06 49.5751H415.193C415.193 41.7245 414.639 36.0124 413.534 32.4295C412.425 28.1618 410.052 26.028 406.4 26.028C403.853 26.028 401.836 26.7877 400.342 28.3025C398.847 29.8173 397.743 32.5045 397.024 36.3595C396.305 40.2144 395.835 45.4153 395.614 51.9528C395.393 58.495 395.28 66.7208 395.28 76.6395C395.28 86.5583 395.388 94.7841 395.614 101.326C395.835 107.868 396.305 113.069 397.024 116.92C397.743 120.775 398.791 123.462 400.177 124.977C401.559 126.491 403.411 127.246 405.737 127.246C407.396 127.246 408.863 126.834 410.136 126.008C411.405 125.183 412.486 123.631 413.37 121.361C414.253 119.086 414.944 115.921 415.442 111.859C415.94 107.798 416.19 102.597 416.19 96.2661H405.239V70.2381H445.06V70.224Z" fill="url(#paint5_linear_8939_822)"/>
<path d="M480.234 2.88419V57.0037H499.15V2.88419H530.014V150.371H499.15V89.6395H480.234V150.371H449.37V2.88419H480.234Z" fill="url(#paint6_linear_8939_822)"/>
<path d="M529.013 35.6358V3H606V35.6358H582.769V150.487H551.905V35.6358H529.008H529.013Z" fill="url(#paint7_linear_8939_822)"/>
<path d="M137.704 111.827V150.348H128.083V111.827H137.704Z" fill="white"/>
<path d="M150.064 111.827L156.268 135.566H156.372V111.827H165.372V150.348H154.821L148.41 126.557H148.307V150.348H139.307V111.827H150.064Z" fill="white"/>
<path d="M174.01 120.352V111.827H198.007V120.352H190.764V150.348H181.144V120.352H174.005H174.01Z" fill="white"/>
<path d="M207.209 111.827V125.961H213.102V111.827H222.723V150.348H213.102V134.487H207.209V150.348H197.588V111.827H207.209Z" fill="white"/>
<path d="M246.565 111.827V120.029H234.308V126.613H245.79V134.492H234.308V142.155H247.03V150.357H224.688V111.836H246.565V111.827Z" fill="white"/>
<path d="M279.092 111.827L282.866 138.478H282.969L285.554 111.827H294.864L288.557 150.348H278.006L274.801 124.451H274.698L271.492 150.348H260.941L254.634 111.827H263.945L266.84 138.478H266.943L270.407 111.827H279.097H279.092Z" fill="white"/>
<path d="M311.417 111.827L320.417 150.348H310.176L309.194 143.604H301.538L300.556 150.348H290.47L299.315 111.827H311.417ZM305.312 119.701L302.676 136.049H308.052L305.416 119.701H305.312Z" fill="white"/>
<path d="M334.479 111.827C336.307 111.827 337.868 112.08 339.16 112.582C340.453 113.083 341.505 113.796 342.314 114.711C343.122 115.63 343.71 116.718 344.071 117.975C344.433 119.236 344.617 120.601 344.617 122.074C344.617 124.662 344.118 126.749 343.117 128.33C342.116 129.915 340.514 130.886 338.31 131.242V131.35C340.617 131.566 342.206 132.41 343.066 133.887C343.926 135.364 344.358 137.395 344.358 139.984V144.838C344.358 145.377 344.377 145.888 344.41 146.376C344.443 146.864 344.494 147.304 344.565 147.698C344.635 148.092 344.72 148.402 344.823 148.618C344.96 148.833 345.101 149.04 345.237 149.237C345.373 149.434 345.599 149.626 345.909 149.804V150.343H335.668C335.429 149.842 335.245 149.246 335.123 148.561C335.001 147.877 334.916 147.197 334.865 146.512C334.813 145.827 334.78 145.171 334.761 144.542C334.742 143.914 334.738 143.403 334.738 143.004V140.415C334.738 139.337 334.686 138.436 334.583 137.719C334.479 137.001 334.296 136.434 334.037 136.021C333.779 135.608 333.45 135.317 333.055 135.158C332.66 134.994 332.167 134.914 331.579 134.914H329.046V150.343H319.426V111.822H334.479V111.827ZM330.964 128.119C332.341 128.119 333.361 127.697 334.014 126.852C334.667 126.008 334.996 124.902 334.996 123.532C334.996 121.914 334.677 120.765 334.037 120.081C333.398 119.396 332.355 119.053 330.907 119.053H329.046V128.119H330.964Z" fill="white"/>
<path d="M372.439 111.827C374.267 111.827 375.828 112.08 377.12 112.582C378.413 113.083 379.465 113.796 380.274 114.711C381.082 115.63 381.67 116.718 382.031 117.975C382.393 119.236 382.577 120.601 382.577 122.074C382.577 124.662 382.078 126.749 381.077 128.33C380.076 129.915 378.474 130.886 376.269 131.242V131.35C378.577 131.566 380.166 132.41 381.026 133.887C381.886 135.364 382.318 137.395 382.318 139.984V144.838C382.318 145.377 382.337 145.888 382.37 146.376C382.403 146.864 382.454 147.304 382.525 147.698C382.595 148.092 382.68 148.402 382.783 148.618C382.92 148.833 383.061 149.04 383.197 149.237C383.333 149.434 383.559 149.626 383.869 149.804V150.343H373.628C373.389 149.842 373.205 149.246 373.083 148.561C372.961 147.877 372.876 147.197 372.825 146.512C372.773 145.827 372.74 145.171 372.721 144.542C372.702 143.914 372.698 143.403 372.698 143.004V140.415C372.698 139.337 372.646 138.436 372.543 137.719C372.439 137.001 372.256 136.434 371.997 136.021C371.739 135.608 371.41 135.317 371.015 135.158C370.62 134.994 370.127 134.914 369.539 134.914H367.006V150.343H357.386V111.822H372.439V111.827ZM368.924 128.119C370.301 128.119 371.321 127.697 371.974 126.852C372.627 126.008 372.956 124.902 372.956 123.532C372.956 121.914 372.637 120.765 371.997 120.081C371.358 119.396 370.315 119.053 368.867 119.053H367.006V128.119H368.924Z" fill="white"/>
<path d="M384.071 121.886C384.518 119.349 385.261 117.281 386.294 115.682C387.328 114.082 388.691 112.915 390.379 112.174C392.066 111.437 394.134 111.067 396.582 111.067C399.031 111.067 401.099 111.437 402.786 112.174C404.473 112.91 405.836 114.082 406.87 115.682C407.904 117.281 408.647 119.349 409.093 121.886C409.54 124.423 409.765 127.49 409.765 131.083C409.765 134.675 409.54 137.747 409.093 140.279C408.647 142.816 407.904 144.884 406.87 146.484C405.836 148.083 404.473 149.227 402.786 149.912C401.094 150.597 399.026 150.939 396.582 150.939C394.138 150.939 392.066 150.597 390.379 149.912C388.687 149.227 387.328 148.088 386.294 146.484C385.261 144.884 384.518 142.816 384.071 140.279C383.625 137.742 383.399 134.68 383.399 131.083C383.399 127.486 383.625 124.418 384.071 121.886ZM393.433 137.536C393.504 139.243 393.65 140.603 393.875 141.611C394.101 142.619 394.425 143.318 394.857 143.717C395.29 144.111 395.868 144.312 396.592 144.312C397.315 144.312 397.894 144.115 398.326 143.717C398.758 143.323 399.083 142.619 399.308 141.611C399.534 140.603 399.679 139.247 399.75 137.536C399.82 135.829 399.853 133.676 399.853 131.087C399.853 128.499 399.82 126.351 399.75 124.639C399.679 122.932 399.534 121.572 399.308 120.564C399.083 119.555 398.758 118.856 398.326 118.458C397.894 118.064 397.315 117.862 396.592 117.862C395.868 117.862 395.29 118.059 394.857 118.458C394.425 118.852 394.101 119.555 393.875 120.564C393.65 121.572 393.504 122.927 393.433 124.639C393.363 126.346 393.33 128.499 393.33 131.087C393.33 133.676 393.363 135.829 393.433 137.536Z" fill="white"/>
<path d="M410.24 121.886C410.686 119.349 411.429 117.281 412.463 115.682C413.497 114.082 414.86 112.915 416.547 112.174C418.234 111.437 420.302 111.067 422.751 111.067C425.199 111.067 427.267 111.437 428.954 112.174C430.642 112.91 432.005 114.082 433.039 115.682C434.073 117.281 434.815 119.349 435.262 121.886C435.708 124.423 435.934 127.49 435.934 131.083C435.934 134.675 435.708 137.747 435.262 140.279C434.815 142.816 434.073 144.884 433.039 146.484C432.005 148.083 430.642 149.227 428.954 149.912C427.263 150.597 425.195 150.939 422.751 150.939C420.307 150.939 418.234 150.597 416.547 149.912C414.855 149.227 413.497 148.088 412.463 146.484C411.429 144.884 410.686 142.816 410.24 140.279C409.793 137.742 409.568 134.68 409.568 131.083C409.568 127.486 409.793 124.418 410.24 121.886ZM419.602 137.536C419.672 139.243 419.818 140.603 420.044 141.611C420.269 142.619 420.594 143.318 421.026 143.717C421.458 144.111 422.036 144.312 422.76 144.312C423.484 144.312 424.062 144.115 424.494 143.717C424.927 143.323 425.251 142.619 425.477 141.611C425.702 140.603 425.848 139.247 425.918 137.536C425.989 135.829 426.022 133.676 426.022 131.087C426.022 128.499 425.989 126.351 425.918 124.639C425.848 122.932 425.702 121.572 425.477 120.564C425.251 119.555 424.927 118.856 424.494 118.458C424.062 118.064 423.484 117.862 422.76 117.862C422.036 117.862 421.458 118.059 421.026 118.458C420.594 118.852 420.269 119.555 420.044 120.564C419.818 121.572 419.672 122.927 419.602 124.639C419.531 126.346 419.499 128.499 419.499 131.087C419.499 133.676 419.531 135.829 419.602 137.536Z" fill="white"/>
<path d="M450.216 111.827L454.094 134.647H454.197L458.074 111.827H471.831V150.348H462.83V121.647H462.727L457.609 150.348H450.682L445.563 121.647H445.46V150.348H436.46V111.827H450.216Z" fill="white"/>
<path d="M5.83714 184.222L11.1244 164.98C11.397 164.07 11.6273 163.493 11.8106 163.249C12.1443 162.734 12.6612 162.476 13.3615 162.476C14.2122 162.476 14.7902 162.682 15.0957 163.09C15.4012 163.498 15.7819 164.628 16.2331 166.481L21.478 187.27C21.8446 188.574 22.1454 189.432 22.3898 189.84C22.6342 190.248 22.9679 190.455 23.3908 190.455C23.513 190.455 23.7856 190.426 24.2133 190.365C24.3026 190.365 24.4107 190.351 24.5329 190.319H24.7585C25.7313 190.319 26.2154 190.834 26.2154 191.866C26.2154 193.048 25.6984 193.639 24.6645 193.639C24.5423 193.639 23.842 193.517 22.5684 193.273C21.9292 193.151 21.2618 193.09 20.5616 193.09C20.0164 193.09 19.2644 193.179 18.3057 193.362C17.3469 193.545 16.703 193.634 16.3694 193.634C15.9417 193.634 15.5657 193.465 15.232 193.132C14.8983 192.799 14.7291 192.391 14.7291 191.904C14.7291 190.844 15.232 190.314 16.2331 190.314H17.1918C17.8921 190.314 18.2399 189.836 18.2399 188.874C18.2399 188.368 18.1506 187.735 17.9673 186.984L17.1448 183.659C17.0226 183.181 16.9004 182.89 16.7782 182.782C16.656 182.679 16.3976 182.623 16.0028 182.623H10.4852C9.84605 182.623 9.39017 183.153 9.11759 184.208L8.29513 187.42C8.08363 188.264 7.97554 188.944 7.97554 189.456C7.97554 190.028 8.24813 190.314 8.798 190.314H9.84606C10.8189 190.314 11.303 190.853 11.303 191.927C11.303 193.067 10.8001 193.634 9.79906 193.634C9.40427 193.634 8.7792 193.545 7.92854 193.362C7.07788 193.179 6.41051 193.09 5.92173 193.09C5.25436 193.09 4.4648 193.179 3.55304 193.362C2.64128 193.545 2.00211 193.634 1.64023 193.634C0.545175 193.634 0 193.071 0 191.951C0 190.83 0.469979 190.314 1.41464 190.314C1.59793 190.314 1.83762 190.342 2.1431 190.403C2.44859 190.464 2.67418 190.492 2.82457 190.492C3.30865 190.492 3.77393 190.037 4.21571 189.127C4.65749 188.218 5.19796 186.581 5.83244 184.213L5.83714 184.222ZM16.0028 178.533L13.4978 167.297L10.5792 178.533C10.5181 178.777 10.4899 178.941 10.4899 179.035C10.4899 179.429 10.7766 179.626 11.3547 179.626H15.3213C15.8383 179.626 16.0968 179.443 16.0968 179.082C16.0968 178.993 16.0686 178.81 16.0075 178.538L16.0028 178.533Z" fill="white"/>
<path d="M41.5322 190.544C42.1102 190.544 42.4721 190.098 42.6272 189.198C42.7776 188.302 42.8528 186.107 42.8528 182.613V173.956C42.8528 170.434 42.7776 168.221 42.6272 167.325C42.4768 166.429 42.1102 165.979 41.5322 165.979C41.3818 165.979 41.1374 166.002 40.8037 166.049C40.47 166.096 40.2115 166.12 40.0282 166.12C39.0554 166.12 38.5713 165.618 38.5713 164.614C38.5713 163.465 39.1494 162.888 40.3055 162.888C40.8507 162.888 41.7201 162.996 42.9045 163.207C43.5719 163.329 44.2721 163.39 45.0006 163.39C45.5176 163.39 46.6408 163.315 48.375 163.16C49.0753 163.099 49.8179 163.071 50.6074 163.071C57.9015 163.071 61.5486 168.15 61.5486 178.313C61.5486 188.476 57.7793 193.554 50.2409 193.554C49.6017 193.554 48.7369 193.494 47.6419 193.372C46.0017 193.189 44.9066 193.1 44.3614 193.1C43.8726 193.1 43.2241 193.161 42.4016 193.287C41.2455 193.465 40.5311 193.554 40.2585 193.554C39.7697 193.554 39.3703 193.381 39.0507 193.029C38.7311 192.682 38.5713 192.251 38.5713 191.735C38.5713 190.736 39.0554 190.234 40.0282 190.234C40.3337 190.234 40.5593 190.286 40.7144 190.394C41.1985 190.501 41.4758 190.553 41.5369 190.553L41.5322 190.544ZM46.0909 188.086C46.1191 189.24 46.5609 189.967 47.4163 190.272C47.8722 190.455 48.8215 190.544 50.255 190.544C52.7552 190.544 54.6164 189.62 55.8383 187.767C57.455 185.31 58.2634 182.065 58.2634 178.031C58.2634 174.786 57.7699 172.155 56.783 170.139C55.796 168.122 54.419 166.903 52.6566 166.476C51.6226 166.232 50.5416 166.11 49.4184 166.11C47.8675 166.11 46.8946 166.415 46.4998 167.02C46.2272 167.414 46.0909 168.399 46.0909 169.975V188.082V188.086Z" fill="white"/>
<path d="M74.9475 194C71.9678 194 69.5897 192.574 67.8132 189.723C66.0367 186.872 65.1484 183.049 65.1484 178.261C65.1484 173.473 66.0367 169.642 67.8132 166.776C69.5897 163.911 71.9678 162.476 74.9475 162.476C77.9272 162.476 80.2959 163.901 82.0583 166.753C83.8207 169.604 84.7043 173.44 84.7043 178.261C84.7043 183.082 83.8207 186.876 82.0583 189.723C80.2959 192.574 77.9225 194 74.9475 194ZM74.9898 165.66C72.9548 165.66 71.3804 166.767 70.2712 168.98C69.1621 171.194 68.6075 174.289 68.6075 178.261C68.6075 182.233 69.1621 185.244 70.2712 187.472C71.3804 189.7 72.9078 190.816 74.8535 190.816C76.7992 190.816 78.4253 189.709 79.5486 187.495C80.6718 185.282 81.2358 182.205 81.2358 178.261C81.2358 174.317 80.6812 171.269 79.5721 169.027C78.4629 166.786 76.9355 165.66 74.9898 165.66Z" fill="white"/>
<path d="M98.6061 162.523C101.069 162.523 102.982 163.507 104.349 165.482V165.032C104.349 164.047 104.448 163.381 104.645 163.038C104.843 162.696 105.2 162.523 105.717 162.523C106.629 162.523 107.085 163.099 107.085 164.253C107.085 164.83 107.033 165.702 106.925 166.87C106.817 168.038 106.765 168.924 106.765 169.529C106.765 170.228 106.817 171.105 106.925 172.169C107.033 173.229 107.085 174.022 107.085 174.533C107.085 175.837 106.577 176.489 105.557 176.489C104.598 176.489 104.119 175.893 104.119 174.706V172.605C104.119 170.504 103.63 168.83 102.662 167.583C101.689 166.335 100.397 165.712 98.7847 165.712C96.6275 165.712 94.9168 166.828 93.6573 169.055C92.3977 171.283 91.7632 174.294 91.7632 178.083C91.7632 181.872 92.4165 184.883 93.7231 187.205C95.0296 189.526 96.7638 190.684 98.921 190.684C100.594 190.684 101.952 190.079 103 188.865C104.048 187.65 104.664 185.985 104.847 183.861C104.937 182.801 105.106 182.093 105.35 181.746C105.595 181.399 106.036 181.22 106.671 181.22C107.644 181.22 108.128 181.797 108.128 182.951C108.128 186.074 107.226 188.691 105.416 190.797C103.607 192.907 101.365 193.958 98.6907 193.958C95.5278 193.958 93.0134 192.532 91.1476 189.681C89.2771 186.829 88.3418 182.965 88.3418 178.078C88.3418 173.192 89.2818 169.684 91.1664 166.818C93.051 163.953 95.5278 162.518 98.5967 162.518L98.6061 162.523Z" fill="white"/>
<path d="M114.562 176.226V169.154C114.562 167.1 114.13 166.073 113.27 166.073H112.203C111.817 166.073 111.488 165.932 111.225 165.646C110.962 165.36 110.826 165.013 110.826 164.591C110.826 163.423 111.39 162.841 112.513 162.841C112.936 162.841 113.472 162.916 114.111 163.067C115.023 163.278 115.784 163.385 116.39 163.385C116.874 163.385 117.56 163.296 118.444 163.113C119.328 162.931 119.962 162.841 120.357 162.841C120.841 162.841 121.255 163.015 121.588 163.367C121.922 163.714 122.091 164.131 122.091 164.619C122.091 165.046 121.945 165.407 121.659 165.712C121.367 166.016 121.015 166.166 120.587 166.166C120.404 166.166 120.155 166.152 119.835 166.12C119.516 166.091 119.267 166.073 119.083 166.073C118.355 166.073 117.913 167.222 117.763 169.515C117.763 169.487 117.763 170.978 117.763 174.003V180.573C117.763 183.805 117.927 186.088 118.265 187.416C118.51 188.443 119.088 189.282 120 189.929C120.911 190.581 121.945 190.905 123.102 190.905C124.258 190.905 125.273 190.581 126.156 189.929C127.04 189.282 127.632 188.396 127.933 187.28C128.267 186.042 128.436 183.805 128.436 180.573V174.003C128.436 170.983 128.436 169.487 128.436 169.515C128.285 167.217 127.844 166.073 127.115 166.073C126.932 166.073 126.683 166.087 126.363 166.12C126.044 166.152 125.795 166.166 125.611 166.166C125.184 166.166 124.826 166.016 124.54 165.712C124.248 165.407 124.107 165.046 124.107 164.619C124.107 164.103 124.281 163.681 124.634 163.343C124.981 163.01 125.4 162.841 125.888 162.841C126.311 162.841 126.951 162.931 127.801 163.113C128.652 163.296 129.291 163.385 129.714 163.385C130.17 163.385 130.837 163.296 131.721 163.113C132.604 162.931 133.272 162.841 133.728 162.841C134.79 162.841 135.326 163.418 135.326 164.572C135.326 165.571 134.851 166.073 133.902 166.073H133.103C132.482 166.073 132.088 166.345 131.923 166.889C131.759 167.433 131.679 168.797 131.679 170.978V182.332C131.679 185.784 131.284 188.311 130.494 189.915C129.855 191.186 128.845 192.185 127.463 192.912C126.081 193.639 124.521 194 122.791 194C121.212 194 119.783 193.676 118.505 193.025C117.227 192.377 116.315 191.519 115.77 190.464C114.98 188.893 114.586 186.201 114.586 182.393V176.226H114.562Z" fill="white"/>
<path d="M147.291 165.571L152.442 188.499L157.546 165.027C157.852 163.695 158.336 163.024 159.003 163.024C158.97 163.024 159.52 163.113 160.644 163.296C160.977 163.357 161.344 163.385 161.739 163.385C162.194 163.385 162.857 163.301 163.722 163.137C164.587 162.973 165.249 162.888 165.705 162.888C166.222 162.888 166.645 163.062 166.984 163.404C167.317 163.747 167.486 164.183 167.486 164.713C167.486 165.149 167.341 165.524 167.054 165.833C166.763 166.143 166.41 166.302 165.982 166.302C165.799 166.302 165.574 166.26 165.296 166.176C164.902 166.049 164.629 165.984 164.474 165.984C163.745 165.984 163.304 167.137 163.153 169.44C163.153 169.412 163.153 170.912 163.153 173.942V187.087C163.304 189.362 163.745 190.501 164.474 190.501C164.535 190.501 164.808 190.473 165.296 190.412C165.447 190.351 165.677 190.323 165.982 190.323C166.405 190.323 166.763 190.469 167.054 190.755C167.341 191.045 167.486 191.402 167.486 191.824C167.486 192.34 167.317 192.771 166.984 193.118C166.65 193.465 166.222 193.644 165.705 193.644C165.216 193.644 164.511 193.554 163.586 193.372C162.66 193.189 161.95 193.1 161.466 193.1C161.01 193.1 160.38 193.189 159.572 193.372C158.768 193.554 158.153 193.644 157.725 193.644C157.33 193.644 156.987 193.47 156.7 193.128C156.409 192.785 156.268 192.377 156.268 191.913C156.268 190.853 156.813 190.323 157.904 190.323H158.51C158.571 190.412 158.698 190.459 158.881 190.459C159.657 190.459 160.08 189.775 160.141 188.41L160.235 186.501V165.576L154.308 192.781C154.125 193.601 153.519 194.009 152.485 194.009C151.39 194.009 150.75 193.601 150.572 192.781L144.556 165.988V182.276C144.556 185.887 144.631 188.152 144.782 189.076C144.932 190 145.299 190.464 145.877 190.464C146.027 190.464 146.257 190.441 146.563 190.394C146.868 190.347 147.094 190.323 147.244 190.323C148.245 190.323 148.748 190.853 148.748 191.913C148.748 193.067 148.231 193.644 147.197 193.644C146.864 193.644 146.314 193.554 145.557 193.372C144.796 193.189 144.067 193.1 143.367 193.1C142.878 193.1 142.164 193.189 141.224 193.372C140.279 193.554 139.565 193.644 139.081 193.644C137.925 193.644 137.347 193.039 137.347 191.824C137.347 190.825 137.831 190.323 138.804 190.323C139.109 190.323 139.335 190.351 139.49 190.412C139.974 190.473 140.251 190.501 140.312 190.501C140.89 190.501 141.252 190.056 141.407 189.16C141.558 188.264 141.638 186.074 141.638 182.585V174.214C141.638 170.725 141.562 168.535 141.407 167.639C141.257 166.743 140.89 166.298 140.312 166.298C140.251 166.298 139.979 166.326 139.49 166.387C139.339 166.448 139.109 166.476 138.804 166.476C137.831 166.476 137.347 165.974 137.347 164.975C137.347 164.459 137.511 164.028 137.85 163.681C138.183 163.334 138.592 163.156 139.081 163.156C139.292 163.156 139.781 163.203 140.538 163.292C140.81 163.353 141.341 163.381 142.136 163.381C142.559 163.381 143.17 163.334 143.959 163.245C144.749 163.156 145.327 163.109 145.694 163.109C146.239 163.109 146.633 163.4 146.878 163.972C146.939 164.155 147.075 164.685 147.287 165.561L147.291 165.571Z" fill="white"/>
<path d="M177.426 170.8V173.618L177.473 174.575C177.501 175.424 177.788 175.851 178.328 175.851H180.091C181.322 175.851 181.943 175.138 181.943 173.712C181.943 173.257 181.928 172.877 181.896 172.577C181.806 171.696 181.759 171.199 181.759 171.077C181.759 169.923 182.215 169.346 183.127 169.346C184.039 169.346 184.448 170.059 184.448 171.485V172.441L184.264 174.899C184.203 175.719 184.175 176.549 184.175 177.398C184.175 178.885 184.241 180.372 184.372 181.858C184.424 182.463 184.452 182.857 184.452 183.04C184.452 184.255 183.996 184.86 183.085 184.86C182.173 184.86 181.764 184.241 181.764 182.993C181.764 182.721 181.792 182.294 181.853 181.718C181.914 181.141 181.943 180.719 181.943 180.442C181.943 179.166 181.369 178.533 180.227 178.533H178.333C177.91 178.533 177.656 178.627 177.567 178.805C177.478 178.988 177.431 179.504 177.431 180.358V188.077C177.431 189.113 177.689 189.765 178.206 190.042C178.573 190.225 179.315 190.314 180.439 190.314H182.901C184.908 190.314 186.229 190.042 186.868 189.493C187.507 188.944 187.827 187.8 187.827 186.065C187.827 185.671 187.799 185.085 187.737 184.306C187.676 183.528 187.648 182.942 187.648 182.548C187.648 181.178 188.151 180.494 189.152 180.494C190.153 180.494 190.656 181.099 190.656 182.313C190.656 182.524 190.623 183.026 190.567 183.814C190.383 184.846 190.294 186.027 190.294 187.364V191.275C190.294 192.096 190.13 192.663 189.796 192.982C189.462 193.301 188.856 193.461 187.982 193.461C187.465 193.461 186.816 193.414 186.031 193.325C184.73 193.175 182.821 193.1 180.312 193.1C180.1 193.1 178.874 193.146 176.637 193.236C175.396 193.297 174.517 193.357 174.005 193.418C172.914 193.569 172.129 193.648 171.645 193.648C170.466 193.648 169.874 193.043 169.874 191.829C169.874 190.83 170.358 190.328 171.33 190.328C171.636 190.328 171.862 190.356 172.017 190.417C172.501 190.478 172.778 190.506 172.839 190.506C173.417 190.506 173.779 190.061 173.934 189.17C174.085 188.278 174.16 186.093 174.16 182.623V174.012C174.16 170.509 174.085 168.31 173.934 167.419C173.784 166.528 173.417 166.082 172.839 166.082C172.689 166.082 172.444 166.105 172.111 166.152C171.777 166.199 171.518 166.223 171.335 166.223C170.362 166.223 169.878 165.707 169.878 164.675C169.878 163.493 170.456 162.902 171.612 162.902C171.885 162.902 172.891 163.024 174.62 163.268C175.259 163.357 176.049 163.404 176.989 163.404C179.391 163.404 181.943 163.296 184.65 163.085C185.411 162.963 186.398 162.902 187.615 162.902C188.95 162.902 189.697 163.249 189.848 163.948C189.909 164.253 189.937 164.675 189.937 165.224C189.937 165.651 189.923 166.209 189.89 166.907C189.801 168.849 189.801 170.425 189.89 171.639L190.026 173.825C190.026 175.068 189.556 175.691 188.612 175.691C187.578 175.691 187.061 175.016 187.061 173.665C187.061 173.276 187.075 172.713 187.108 171.977C187.136 171.241 187.155 170.678 187.155 170.289C187.155 168.638 186.91 167.526 186.431 166.954C185.947 166.382 185.012 166.096 183.616 166.096H180.124C178.916 166.096 178.164 166.354 177.877 166.87C177.591 167.386 177.445 168.704 177.445 170.828L177.426 170.8Z" fill="white"/>
<path d="M203.684 164.295L212.026 188.996V173.937C212.026 170.903 212.026 169.402 212.026 169.435C211.876 167.133 211.434 165.979 210.706 165.979C210.522 165.979 210.273 166.016 209.954 166.091C209.634 166.166 209.385 166.204 209.202 166.204C208.774 166.204 208.417 166.054 208.13 165.749C207.839 165.444 207.698 165.083 207.698 164.656C207.698 164.173 207.862 163.756 208.201 163.404C208.534 163.057 208.943 162.879 209.432 162.879C209.827 162.879 210.508 162.987 211.481 163.198C212.026 163.32 212.712 163.381 213.535 163.381C214.447 163.381 215.147 163.32 215.631 163.198C216.51 162.987 217.121 162.879 217.455 162.879C217.849 162.879 218.192 163.048 218.479 163.381C218.766 163.714 218.911 164.122 218.911 164.609C218.911 165.669 218.451 166.204 217.53 166.204C217.408 166.204 217.205 166.181 216.928 166.134C216.651 166.087 216.435 166.063 216.284 166.063C215.608 166.063 215.222 166.762 215.133 168.155L214.997 170.382V190.487C214.997 192.612 214.221 193.672 212.67 193.672C211.303 193.672 210.301 192.715 209.662 190.806L201.682 167.062V182.576C201.682 186.065 201.757 188.255 201.908 189.151C202.058 190.047 202.425 190.492 203.003 190.492C203.092 190.492 203.35 190.469 203.778 190.422C203.961 190.375 204.201 190.351 204.507 190.351C205.48 190.351 205.964 190.853 205.964 191.852C205.964 192.34 205.794 192.762 205.461 193.128C205.127 193.493 204.732 193.672 204.276 193.672C204.154 193.672 203.515 193.522 202.364 193.226C201.969 193.128 201.315 193.076 200.404 193.076C199.642 193.076 198.867 193.161 198.077 193.325C196.954 193.554 196.282 193.672 196.071 193.672C195.582 193.672 195.182 193.498 194.863 193.146C194.543 192.799 194.383 192.368 194.383 191.852C194.383 190.853 194.867 190.351 195.84 190.351C196.146 190.351 196.371 190.375 196.526 190.422C197.01 190.469 197.288 190.492 197.349 190.492C197.927 190.492 198.289 190.047 198.444 189.151C198.594 188.255 198.674 186.065 198.674 182.576V173.933C198.674 170.415 198.599 168.206 198.444 167.315C198.294 166.42 197.927 165.974 197.349 165.974C197.198 165.974 196.954 166.012 196.62 166.087C196.287 166.162 196.028 166.199 195.845 166.199C194.872 166.199 194.388 165.683 194.388 164.652C194.388 164.136 194.548 163.714 194.867 163.376C195.187 163.043 195.591 162.874 196.075 162.874C196.409 162.874 196.987 162.963 197.809 163.146C198.477 163.296 199.191 163.376 199.953 163.376C200.075 163.376 200.714 163.287 201.865 163.104C202.138 163.076 202.368 163.057 202.547 163.057C203.031 163.057 203.412 163.465 203.689 164.286L203.684 164.295Z" fill="white"/>
<path d="M232.724 169.801V182.585C232.724 186.074 232.799 188.264 232.95 189.16C233.1 190.056 233.467 190.501 234.045 190.501C234.134 190.501 234.392 190.473 234.82 190.412C235.003 190.351 235.243 190.323 235.549 190.323C236.521 190.323 237.006 190.825 237.006 191.824C237.006 192.34 236.836 192.771 236.503 193.118C236.169 193.465 235.755 193.644 235.271 193.644C234.999 193.644 234.284 193.536 233.128 193.325C232.306 193.175 231.591 193.1 230.985 193.1C230.496 193.1 229.791 193.189 228.865 193.372C227.94 193.554 227.263 193.644 226.835 193.644C226.346 193.644 225.938 193.47 225.604 193.118C225.27 192.771 225.101 192.34 225.101 191.824C225.101 190.825 225.604 190.323 226.605 190.323C226.877 190.323 227.108 190.351 227.291 190.412C227.714 190.473 227.991 190.501 228.114 190.501C228.692 190.501 229.049 190.051 229.185 189.155C229.321 188.26 229.392 186.065 229.392 182.571V171.86C229.392 169.309 229.27 167.714 229.025 167.076C228.781 166.438 228.142 166.12 227.112 166.12C226.083 166.12 225.317 166.279 224.922 166.598C224.528 166.917 224.33 167.517 224.33 168.394C224.33 168.699 224.358 169.487 224.419 170.758C224.481 172.033 224.509 172.882 224.509 173.304C224.509 174.913 223.978 175.715 222.916 175.715C221.91 175.715 221.412 175.049 221.412 173.722C221.412 173.754 221.43 173.285 221.468 172.315C221.524 170.866 221.548 169.745 221.548 168.962C221.548 168.478 221.515 167.602 221.459 166.331C221.426 165.697 221.412 165.121 221.412 164.609C221.412 163.554 221.868 163.024 222.775 163.024C223.047 163.024 223.715 163.076 224.772 163.184C225.829 163.292 227.432 163.343 229.58 163.343H233.575C234.877 163.306 235.812 163.245 236.39 163.16C237.419 163.071 238.368 163.024 239.247 163.024C240.126 163.024 240.61 163.54 240.61 164.572C240.61 164.755 240.591 165.257 240.554 166.073C240.497 167.315 240.474 168.394 240.474 169.304C240.474 170.003 240.502 170.987 240.563 172.258C240.591 172.896 240.61 173.365 240.61 173.67C240.61 175.035 240.079 175.715 239.017 175.715C238.016 175.715 237.513 174.955 237.513 173.44C237.513 173.351 237.527 173.056 237.56 172.554C237.588 172.052 237.607 171.653 237.607 171.349V168.619C237.607 167.681 237.433 167.029 237.09 166.664C236.747 166.298 236.141 166.12 235.276 166.12C234.021 166.12 233.246 166.453 232.95 167.118C232.799 167.484 232.724 168.375 232.724 169.801Z" fill="white"/>
<path d="M247.176 184.222L252.463 164.98C252.736 164.07 252.966 163.493 253.149 163.249C253.483 162.734 254 162.476 254.7 162.476C255.551 162.476 256.129 162.682 256.434 163.09C256.74 163.498 257.12 164.628 257.572 166.481L262.817 187.27C263.183 188.574 263.484 189.432 263.728 189.84C263.973 190.248 264.306 190.455 264.729 190.455C264.852 190.455 265.124 190.426 265.552 190.365C265.641 190.365 265.749 190.351 265.871 190.319H266.102C267.075 190.319 267.559 190.834 267.559 191.866C267.559 193.048 267.042 193.639 266.008 193.639C265.886 193.639 265.185 193.517 263.912 193.273C263.272 193.151 262.605 193.09 261.905 193.09C261.36 193.09 260.608 193.179 259.649 193.362C258.69 193.545 258.046 193.634 257.713 193.634C257.285 193.634 256.909 193.465 256.575 193.132C256.242 192.799 256.072 192.391 256.072 191.904C256.072 190.844 256.575 190.314 257.576 190.314H258.535C259.235 190.314 259.583 189.836 259.583 188.874C259.583 188.368 259.494 187.735 259.311 186.984L258.488 183.659C258.366 183.181 258.244 182.89 258.121 182.782C257.999 182.679 257.741 182.623 257.346 182.623H251.828C251.189 182.623 250.733 183.153 250.461 184.208L249.638 187.42C249.427 188.264 249.319 188.944 249.319 189.456C249.319 190.028 249.591 190.314 250.141 190.314H251.189C252.162 190.314 252.646 190.853 252.646 191.927C252.646 193.067 252.143 193.634 251.142 193.634C250.748 193.634 250.122 193.545 249.272 193.362C248.421 193.179 247.754 193.09 247.265 193.09C246.598 193.09 245.808 193.179 244.896 193.362C243.985 193.545 243.345 193.634 242.983 193.634C241.888 193.634 241.343 193.071 241.343 191.951C241.343 190.83 241.813 190.314 242.758 190.314C242.941 190.314 243.181 190.342 243.486 190.403C243.792 190.464 244.017 190.492 244.173 190.492C244.657 190.492 245.122 190.037 245.564 189.127C246.005 188.218 246.546 186.581 247.18 184.213L247.176 184.222ZM257.341 178.533L254.836 167.297L251.918 178.533C251.857 178.777 251.828 178.941 251.828 179.035C251.828 179.429 252.115 179.626 252.693 179.626H256.66C257.177 179.626 257.435 179.443 257.435 179.082C257.435 178.993 257.407 178.81 257.346 178.538L257.341 178.533Z" fill="white"/>
<path d="M289.023 170.894C289.023 174.655 287.457 177.004 284.327 177.942C285.667 178.458 286.532 179.04 286.926 179.696C287.321 180.348 287.566 181.586 287.655 183.406V185.498L287.744 187.364C287.805 189.456 288.275 190.501 289.159 190.501C289.309 190.501 289.568 190.455 289.934 190.365C290.301 190.276 290.498 190.229 290.526 190.229C291.499 190.229 291.983 190.759 291.983 191.819C291.983 192.973 291.344 193.55 290.071 193.55H289.615L288.52 193.414L287.335 193.367C286.212 193.339 285.451 192.814 285.056 191.796C284.661 190.778 284.431 188.771 284.37 185.77V183.631C284.337 182.022 284.003 180.939 283.369 180.381C282.73 179.818 281.512 179.542 279.722 179.542H279.355L277.076 179.631C276.648 179.659 276.375 179.781 276.253 179.996C276.131 180.208 276.07 180.709 276.07 181.497V182.59C276.07 186.079 276.145 188.269 276.3 189.165C276.451 190.061 276.817 190.506 277.395 190.506C277.456 190.506 277.729 190.459 278.218 190.37C278.368 190.281 278.598 190.234 278.904 190.234C279.877 190.234 280.361 190.736 280.361 191.735C280.361 192.251 280.192 192.682 279.858 193.029C279.524 193.376 279.115 193.554 278.627 193.554C278.199 193.554 277.503 193.479 276.53 193.325C275.558 193.175 274.815 193.1 274.298 193.1C273.809 193.1 273.114 193.175 272.202 193.325C271.29 193.475 270.609 193.554 270.148 193.554C269.659 193.554 269.26 193.381 268.94 193.029C268.621 192.682 268.461 192.251 268.461 191.735C268.461 190.736 268.945 190.234 269.918 190.234C270.223 190.234 270.449 190.281 270.604 190.37C271.088 190.459 271.365 190.506 271.427 190.506C272.005 190.506 272.366 190.056 272.522 189.16C272.672 188.264 272.752 186.07 272.752 182.576V173.919C272.752 170.397 272.677 168.183 272.522 167.287C272.371 166.392 272.005 165.941 271.427 165.941C271.271 165.941 271.032 165.988 270.698 166.077C270.364 166.166 270.106 166.213 269.923 166.213C268.95 166.213 268.466 165.697 268.466 164.666C268.466 163.484 269.044 162.893 270.2 162.893C270.684 162.893 271.422 162.977 272.409 163.142C273.396 163.31 274.148 163.39 274.665 163.39C275.454 163.39 276.639 163.339 278.222 163.231C279.802 163.123 280.986 163.071 281.78 163.071C284.088 163.071 285.874 163.747 287.138 165.097C288.397 166.448 289.032 168.38 289.032 170.898L289.023 170.894ZM276.075 175.349C276.075 176.015 276.394 176.367 277.033 176.395L277.945 176.442C278.034 176.47 278.19 176.489 278.401 176.489C278.551 176.489 278.81 176.474 279.176 176.442C280.544 176.353 281.639 176.259 282.457 176.17C283.43 175.926 284.205 175.349 284.783 174.439C285.361 173.529 285.648 172.423 285.648 171.119C285.648 167.662 283.886 165.932 280.361 165.932C278.782 165.932 277.673 166.101 277.033 166.434C276.394 166.767 276.075 167.33 276.075 168.117V175.349Z" fill="white"/>
<path d="M300.692 169.088L304.748 178.308L309.396 167.873C309.607 167.367 309.716 167.048 309.716 166.931C309.716 166.542 309.532 166.345 309.17 166.345H307.892C307.008 166.345 306.571 165.777 306.571 164.638C306.571 163.498 307.088 162.888 308.122 162.888C308.428 162.888 308.982 162.973 309.786 163.137C310.59 163.306 311.238 163.385 311.722 163.385C312.484 163.385 313.287 163.296 314.138 163.113C314.867 162.963 315.398 162.884 315.731 162.884C316.793 162.884 317.325 163.475 317.325 164.656C317.325 165.777 316.836 166.34 315.868 166.34C315.656 166.34 315.412 166.293 315.139 166.204C314.773 166.143 314.561 166.115 314.5 166.115C314.072 166.115 313.677 166.434 313.316 167.072L312.86 167.892L312.357 168.985L306.614 181.084C306.463 181.389 306.369 181.783 306.341 182.266C306.28 182.538 306.252 182.89 306.252 183.312V188.044C306.252 189.742 306.722 190.591 307.666 190.591C308 190.591 308.287 190.562 308.531 190.501C308.959 190.44 309.246 190.412 309.396 190.412C310.336 190.412 310.811 190.914 310.811 191.913C310.811 192.401 310.656 192.809 310.355 193.142C310.049 193.475 309.669 193.644 309.217 193.644C308.7 193.644 307.948 193.554 306.961 193.372C305.975 193.189 305.223 193.1 304.706 193.1C304.128 193.1 303.3 193.189 302.219 193.372C301.138 193.554 300.344 193.644 299.827 193.644C298.704 193.644 298.14 193.067 298.14 191.913C298.14 190.914 298.643 190.412 299.644 190.412C299.855 190.412 300.17 190.445 300.579 190.501C300.988 190.562 301.284 190.591 301.467 190.591C302.257 190.591 302.746 189.634 302.924 187.725C302.985 187.27 303.014 186.102 303.014 184.222V183.176C303.014 182.416 302.906 181.783 302.694 181.267C302.605 181.056 302.403 180.601 302.102 179.903L296.086 167.254C295.691 166.528 295.264 166.162 294.808 166.162C294.657 166.162 294.437 166.19 294.145 166.251C293.854 166.312 293.638 166.34 293.483 166.34C292.543 166.34 292.068 165.777 292.068 164.656C292.068 163.475 292.613 162.884 293.708 162.884C294.042 162.884 294.667 162.968 295.579 163.132C296.49 163.301 297.219 163.381 297.769 163.381C298.253 163.381 298.892 163.296 299.682 163.132C300.471 162.968 301.016 162.884 301.322 162.884C301.778 162.884 302.163 163.057 302.483 163.4C302.802 163.742 302.962 164.169 302.962 164.68C302.962 165.787 302.459 166.34 301.458 166.34H300.274C299.968 166.34 299.818 166.518 299.818 166.879C299.818 166.912 299.832 166.978 299.865 167.081C299.893 167.184 300.015 167.494 300.231 168L300.687 169.079L300.692 169.088Z" fill="white"/>
<path d="M340.081 194C337.102 194 334.724 192.574 332.947 189.723C331.17 186.872 330.282 183.049 330.282 178.261C330.282 173.473 331.17 169.642 332.947 166.776C334.724 163.911 337.102 162.476 340.081 162.476C343.061 162.476 345.43 163.901 347.192 166.753C348.954 169.604 349.838 173.44 349.838 178.261C349.838 183.082 348.954 186.876 347.192 189.723C345.43 192.574 343.056 194 340.081 194ZM340.128 165.66C338.093 165.66 336.519 166.767 335.41 168.98C334.301 171.194 333.746 174.289 333.746 178.261C333.746 182.233 334.301 185.244 335.41 187.472C336.519 189.7 338.046 190.816 339.992 190.816C341.938 190.816 343.564 189.709 344.687 187.495C345.81 185.282 346.374 182.205 346.374 178.261C346.374 174.317 345.82 171.269 344.711 169.027C343.601 166.786 342.074 165.66 340.128 165.66Z" fill="white"/>
<path d="M362.147 164.295L370.489 188.996V173.937C370.489 170.903 370.489 169.402 370.489 169.435C370.338 167.133 369.897 165.979 369.168 165.979C368.985 165.979 368.736 166.016 368.416 166.091C368.097 166.166 367.847 166.204 367.664 166.204C367.236 166.204 366.879 166.054 366.593 165.749C366.301 165.444 366.16 165.083 366.16 164.656C366.16 164.173 366.325 163.756 366.663 163.404C366.997 163.057 367.406 162.879 367.894 162.879C368.289 162.879 368.971 162.987 369.944 163.198C370.489 163.32 371.175 163.381 371.997 163.381C372.909 163.381 373.609 163.32 374.093 163.198C374.977 162.987 375.583 162.879 375.917 162.879C376.312 162.879 376.655 163.048 376.941 163.381C377.228 163.714 377.374 164.122 377.374 164.609C377.374 165.669 376.913 166.204 375.987 166.204C375.865 166.204 375.663 166.181 375.386 166.134C375.109 166.087 374.897 166.063 374.742 166.063C374.065 166.063 373.68 166.762 373.591 168.155L373.454 170.383V190.487C373.454 192.612 372.679 193.672 371.128 193.672C369.76 193.672 368.759 192.715 368.12 190.806L360.144 167.062V182.576C360.144 186.065 360.22 188.255 360.37 189.151C360.52 190.047 360.887 190.492 361.465 190.492C361.554 190.492 361.813 190.469 362.241 190.422C362.424 190.375 362.664 190.351 362.969 190.351C363.942 190.351 364.426 190.853 364.426 191.852C364.426 192.34 364.257 192.762 363.923 193.128C363.589 193.494 363.195 193.672 362.739 193.672C362.617 193.672 361.977 193.522 360.826 193.226C360.431 193.128 359.778 193.076 358.866 193.076C358.105 193.076 357.329 193.161 356.54 193.325C355.416 193.554 354.744 193.672 354.533 193.672C354.044 193.672 353.645 193.498 353.325 193.146C353.005 192.799 352.846 192.368 352.846 191.852C352.846 190.853 353.33 190.351 354.303 190.351C354.608 190.351 354.834 190.375 354.989 190.422C355.473 190.469 355.75 190.492 355.811 190.492C356.389 190.492 356.751 190.047 356.906 189.151C357.057 188.255 357.137 186.065 357.137 182.576V173.933C357.137 170.415 357.061 168.206 356.906 167.315C356.756 166.42 356.389 165.974 355.811 165.974C355.656 165.974 355.416 166.012 355.083 166.087C354.749 166.162 354.491 166.199 354.307 166.199C353.334 166.199 352.85 165.683 352.85 164.652C352.85 164.136 353.01 163.714 353.33 163.376C353.649 163.043 354.054 162.874 354.538 162.874C354.871 162.874 355.449 162.963 356.272 163.146C356.939 163.296 357.654 163.376 358.415 163.376C358.537 163.376 359.176 163.287 360.328 163.104C360.6 163.076 360.831 163.057 361.014 163.057C361.498 163.057 361.879 163.465 362.151 164.286L362.147 164.295Z" fill="white"/>
<path d="M401.761 162.523C404.224 162.523 406.136 163.507 407.504 165.482V165.032C407.504 164.047 407.603 163.381 407.8 163.038C407.998 162.696 408.355 162.523 408.872 162.523C409.783 162.523 410.239 163.099 410.239 164.253C410.239 164.83 410.188 165.702 410.08 166.87C409.971 168.038 409.92 168.924 409.92 169.529C409.92 170.228 409.971 171.105 410.08 172.169C410.188 173.229 410.239 174.022 410.239 174.533C410.239 175.837 409.732 176.489 408.712 176.489C407.753 176.489 407.274 175.893 407.274 174.706V172.605C407.274 170.504 406.785 168.83 405.817 167.583C404.844 166.335 403.552 165.712 401.939 165.712C399.782 165.712 398.072 166.828 396.812 169.055C395.552 171.283 394.918 174.294 394.918 178.083C394.918 181.872 395.571 184.883 396.878 187.205C398.184 189.526 399.919 190.684 402.076 190.684C403.749 190.684 405.107 190.079 406.155 188.865C407.203 187.65 407.819 185.985 408.002 183.861C408.092 182.801 408.261 182.093 408.505 181.746C408.75 181.399 409.191 181.22 409.826 181.22C410.799 181.22 411.283 181.797 411.283 182.951C411.283 186.074 410.38 188.691 408.571 190.797C406.762 192.907 404.52 193.958 401.846 193.958C398.683 193.958 396.168 192.532 394.302 189.681C392.432 186.829 391.497 182.965 391.497 178.078C391.497 173.192 392.437 169.684 394.321 166.818C396.206 163.953 398.683 162.518 401.752 162.518L401.761 162.523Z" fill="white"/>
<path d="M421.453 169.088L425.509 178.308L430.157 167.873C430.369 167.367 430.477 167.048 430.477 166.931C430.477 166.542 430.294 166.345 429.932 166.345H428.653C427.77 166.345 427.333 165.777 427.333 164.638C427.333 163.498 427.85 162.888 428.884 162.888C429.189 162.888 429.744 162.973 430.547 163.137C431.351 163.306 432 163.385 432.484 163.385C433.245 163.385 434.049 163.296 434.899 163.113C435.628 162.963 436.159 162.884 436.497 162.884C437.56 162.884 438.091 163.475 438.091 164.656C438.091 165.777 437.602 166.34 436.634 166.34C436.422 166.34 436.178 166.293 435.905 166.204C435.539 166.143 435.327 166.115 435.266 166.115C434.838 166.115 434.444 166.434 434.082 167.072L433.626 167.892L433.123 168.985L427.38 181.084C427.229 181.389 427.135 181.783 427.107 182.266C427.046 182.538 427.018 182.89 427.018 183.312V188.044C427.018 189.742 427.488 190.591 428.433 190.591C428.766 190.591 429.058 190.562 429.297 190.501C429.72 190.44 430.012 190.412 430.162 190.412C431.102 190.412 431.577 190.914 431.577 191.913C431.577 192.401 431.426 192.809 431.121 193.142C430.815 193.475 430.435 193.644 429.984 193.644C429.467 193.644 428.715 193.554 427.728 193.372C426.741 193.189 425.989 193.1 425.472 193.1C424.894 193.1 424.066 193.189 422.986 193.372C421.905 193.554 421.11 193.644 420.593 193.644C419.47 193.644 418.906 193.067 418.906 191.913C418.906 190.914 419.409 190.412 420.41 190.412C420.622 190.412 420.936 190.445 421.345 190.501C421.754 190.562 422.05 190.591 422.234 190.591C423.023 190.591 423.512 189.634 423.691 187.725C423.752 187.27 423.78 186.102 423.78 184.222V183.176C423.78 182.416 423.672 181.783 423.46 181.267C423.371 181.056 423.169 180.601 422.868 179.903L416.852 167.254C416.458 166.528 416.03 166.162 415.574 166.162C415.424 166.162 415.203 166.19 414.911 166.251C414.62 166.312 414.404 166.34 414.249 166.34C413.309 166.34 412.834 165.777 412.834 164.656C412.834 163.475 413.379 162.884 414.474 162.884C414.808 162.884 415.433 162.968 416.345 163.132C417.256 163.301 417.985 163.381 418.535 163.381C419.019 163.381 419.658 163.296 420.448 163.132C421.237 162.968 421.782 162.884 422.088 162.884C422.544 162.884 422.929 163.057 423.249 163.4C423.568 163.742 423.728 164.169 423.728 164.68C423.728 165.787 423.225 166.34 422.224 166.34H421.04C420.734 166.34 420.584 166.518 420.584 166.879C420.584 166.912 420.598 166.978 420.631 167.081C420.659 167.184 420.781 167.494 420.998 168L421.453 169.079V169.088Z" fill="white"/>
<path d="M459.155 170.256C459.155 173.318 457.787 175.504 455.052 176.807C458.61 178.233 460.386 180.78 460.386 184.452C460.386 187.031 459.55 189.207 457.881 190.98C456.208 192.753 454.173 193.639 451.772 193.639C450.949 193.639 449.718 193.531 448.078 193.32C446.893 193.17 445.859 193.095 444.976 193.095C444.487 193.095 443.773 193.184 442.833 193.367C441.893 193.55 441.192 193.639 440.737 193.639C440.248 193.639 439.848 193.465 439.529 193.114C439.209 192.767 439.049 192.335 439.049 191.819C439.049 190.82 439.533 190.319 440.506 190.319C440.812 190.319 441.037 190.347 441.192 190.408C441.676 190.469 441.954 190.497 442.015 190.497C442.593 190.497 442.955 190.051 443.11 189.16C443.26 188.269 443.34 186.084 443.34 182.613V174.003C443.34 170.5 443.265 168.3 443.11 167.409C442.96 166.518 442.593 166.073 442.015 166.073C441.864 166.073 441.62 166.096 441.286 166.143C440.953 166.19 440.694 166.213 440.511 166.213C439.538 166.213 439.054 165.697 439.054 164.666C439.054 163.484 439.632 162.893 440.788 162.893C441.305 162.893 442.085 162.977 443.138 163.142C444.186 163.31 444.971 163.39 445.488 163.39C446.583 163.39 447.692 163.329 448.815 163.207C449.939 163.085 450.926 163.024 451.781 163.024C453.999 163.024 455.785 163.69 457.139 165.027C458.492 166.363 459.169 168.103 459.169 170.261L459.155 170.256ZM446.574 169.163V174.397C446.574 174.885 446.621 175.194 446.71 175.33C446.799 175.466 447.044 175.537 447.438 175.537H448.942C451.344 175.537 453.059 175.166 454.093 174.42C455.127 173.679 455.644 172.427 455.644 170.669C455.644 167.606 453.882 166.073 450.357 166.073C448.839 166.073 447.829 166.279 447.326 166.687C446.823 167.095 446.574 167.925 446.574 169.168V169.163ZM449.854 178.58C448.548 178.58 447.833 178.594 447.711 178.627C446.95 178.782 446.574 179.232 446.574 179.992V186.862C446.602 188.41 446.87 189.432 447.377 189.934C447.88 190.436 448.928 190.684 450.512 190.684C454.695 190.684 456.786 188.64 456.786 184.546C456.786 181.938 455.936 180.179 454.234 179.27C453.384 178.815 451.922 178.585 449.859 178.585L449.854 178.58Z" fill="white"/>
<path d="M471.238 170.8V173.618L471.28 174.575C471.309 175.424 471.595 175.851 472.14 175.851H473.903C475.134 175.851 475.755 175.138 475.755 173.712C475.755 173.257 475.741 172.877 475.708 172.577C475.618 171.696 475.571 171.199 475.571 171.077C475.571 169.923 476.027 169.346 476.939 169.346C477.851 169.346 478.26 170.059 478.26 171.485V172.441L478.076 174.899C478.015 175.719 477.987 176.55 477.987 177.398C477.987 178.885 478.053 180.372 478.184 181.858C478.236 182.463 478.264 182.857 478.264 183.04C478.264 184.255 477.808 184.86 476.897 184.86C475.985 184.86 475.576 184.241 475.576 182.993C475.576 182.721 475.604 182.294 475.665 181.718C475.726 181.141 475.755 180.719 475.755 180.442C475.755 179.166 475.181 178.533 474.039 178.533H472.145C471.722 178.533 471.468 178.627 471.379 178.805C471.29 178.988 471.243 179.504 471.243 180.358V188.077C471.243 189.113 471.501 189.765 472.018 190.042C472.385 190.225 473.127 190.314 474.251 190.314H476.713C478.72 190.314 480.041 190.042 480.68 189.493C481.319 188.944 481.639 187.8 481.639 186.065C481.639 185.671 481.611 185.085 481.549 184.306C481.488 183.528 481.46 182.942 481.46 182.548C481.46 181.178 481.963 180.494 482.964 180.494C483.965 180.494 484.468 181.099 484.468 182.313C484.468 182.524 484.435 183.026 484.379 183.814C484.195 184.846 484.106 186.027 484.106 187.364V191.275C484.106 192.096 483.942 192.663 483.608 192.982C483.274 193.301 482.668 193.461 481.794 193.461C481.277 193.461 480.628 193.414 479.843 193.325C478.542 193.175 476.633 193.1 474.124 193.1C473.912 193.1 472.686 193.146 470.449 193.236C469.208 193.297 468.329 193.358 467.817 193.418C466.726 193.569 465.941 193.648 465.457 193.648C464.278 193.648 463.686 193.043 463.686 191.829C463.686 190.83 464.17 190.328 465.142 190.328C465.448 190.328 465.674 190.356 465.829 190.417C466.313 190.478 466.59 190.506 466.651 190.506C467.229 190.506 467.591 190.061 467.746 189.17C467.897 188.279 467.976 186.093 467.976 182.623V174.012C467.976 170.509 467.901 168.31 467.746 167.419C467.596 166.528 467.229 166.082 466.651 166.082C466.501 166.082 466.256 166.106 465.923 166.152C465.589 166.199 465.33 166.223 465.147 166.223C464.174 166.223 463.69 165.707 463.69 164.675C463.69 163.493 464.268 162.902 465.424 162.902C465.697 162.902 466.703 163.024 468.432 163.268C469.072 163.357 469.861 163.404 470.801 163.404C473.203 163.404 475.755 163.296 478.462 163.085C479.223 162.963 480.21 162.902 481.427 162.902C482.762 162.902 483.509 163.249 483.66 163.948C483.721 164.253 483.749 164.675 483.749 165.224C483.749 165.651 483.735 166.209 483.702 166.907C483.613 168.849 483.613 170.425 483.702 171.639L483.838 173.825C483.838 175.068 483.368 175.691 482.424 175.691C481.39 175.691 480.873 175.016 480.873 173.665C480.873 173.276 480.887 172.713 480.92 171.977C480.948 171.241 480.967 170.678 480.967 170.289C480.967 168.638 480.727 167.526 480.243 166.954C479.759 166.382 478.819 166.096 477.428 166.096H473.936C472.723 166.096 471.976 166.354 471.689 166.87C471.403 167.386 471.257 168.704 471.257 170.828L471.238 170.8Z" fill="white"/>
<path d="M508.752 170.894C508.752 174.655 507.186 177.004 504.056 177.942C505.396 178.458 506.261 179.04 506.655 179.696C507.05 180.348 507.295 181.586 507.384 183.406V185.498L507.473 187.364C507.534 189.456 508.004 190.501 508.888 190.501C509.038 190.501 509.297 190.455 509.663 190.365C510.03 190.276 510.227 190.229 510.255 190.229C511.228 190.229 511.712 190.759 511.712 191.819C511.712 192.973 511.073 193.55 509.8 193.55H509.344L508.249 193.414L507.064 193.367C505.941 193.339 505.18 192.814 504.785 191.796C504.39 190.778 504.16 188.771 504.099 185.77V183.631C504.066 182.022 503.732 180.939 503.098 180.381C502.458 179.818 501.241 179.542 499.451 179.542H499.084L496.805 179.631C496.377 179.659 496.104 179.781 495.982 179.996C495.86 180.208 495.799 180.709 495.799 181.497V182.59C495.799 186.079 495.874 188.269 496.029 189.165C496.18 190.061 496.546 190.506 497.124 190.506C497.185 190.506 497.458 190.459 497.947 190.37C498.097 190.281 498.327 190.234 498.633 190.234C499.606 190.234 500.09 190.736 500.09 191.735C500.09 192.251 499.921 192.682 499.587 193.029C499.253 193.376 498.844 193.554 498.356 193.554C497.928 193.554 497.232 193.479 496.259 193.325C495.287 193.175 494.544 193.1 494.027 193.1C493.538 193.1 492.843 193.175 491.931 193.325C491.019 193.475 490.338 193.554 489.877 193.554C489.388 193.554 488.989 193.381 488.669 193.029C488.35 192.682 488.19 192.251 488.19 191.735C488.19 190.736 488.674 190.234 489.647 190.234C489.952 190.234 490.178 190.281 490.333 190.37C490.817 190.459 491.094 190.506 491.156 190.506C491.734 190.506 492.095 190.056 492.251 189.16C492.401 188.264 492.481 186.07 492.481 182.576V173.919C492.481 170.397 492.406 168.183 492.251 167.287C492.1 166.392 491.734 165.941 491.156 165.941C491 165.941 490.761 165.988 490.427 166.077C490.093 166.166 489.835 166.213 489.652 166.213C488.679 166.213 488.195 165.697 488.195 164.666C488.195 163.484 488.773 162.893 489.929 162.893C490.413 162.893 491.151 162.977 492.138 163.142C493.125 163.31 493.877 163.39 494.394 163.39C495.183 163.39 496.368 163.339 497.951 163.231C499.531 163.123 500.715 163.071 501.509 163.071C503.817 163.071 505.603 163.747 506.867 165.097C508.126 166.448 508.761 168.38 508.761 170.898L508.752 170.894ZM495.808 175.349C495.808 176.015 496.128 176.367 496.767 176.395L497.679 176.442C497.768 176.47 497.923 176.489 498.135 176.489C498.285 176.489 498.544 176.474 498.91 176.442C500.278 176.353 501.373 176.259 502.191 176.17C503.163 175.926 503.939 175.349 504.517 174.439C505.095 173.529 505.382 172.423 505.382 171.119C505.382 167.662 503.619 165.932 500.094 165.932C498.515 165.932 497.406 166.101 496.767 166.434C496.128 166.767 495.808 167.33 495.808 168.117V175.349Z" fill="white"/>
<path d="M530.456 168.891L533.28 187.542L537.017 165.618C537.2 164.558 537.435 163.836 537.722 163.456C538.008 163.076 538.459 162.888 539.066 162.888C539.827 162.888 540.358 163.16 540.664 163.709C540.786 163.953 540.936 164.591 541.12 165.618L544.903 187.997L547.638 169.299C547.76 168.478 547.821 167.874 547.821 167.48C547.821 166.448 547.38 165.932 546.501 165.932H546.228C546.106 165.965 546.017 165.979 545.956 165.979C545.561 166.068 545.255 166.115 545.044 166.115C544.132 166.115 543.676 165.571 543.676 164.478C543.676 163.385 544.221 162.888 545.316 162.888C545.772 162.888 546.459 162.973 547.37 163.137C548.282 163.306 548.968 163.385 549.424 163.385C549.88 163.385 550.561 163.301 551.478 163.137C552.39 162.973 553.071 162.888 553.527 162.888C554.561 162.888 555.078 163.432 555.078 164.525C555.078 165.618 554.622 166.115 553.71 166.115C553.621 166.115 553.391 166.087 553.024 166.026C552.874 165.965 552.676 165.937 552.432 165.937C551.826 165.937 551.412 166.678 551.201 168.164C551.201 168.347 551.111 168.952 550.928 169.984L550.472 172.53L546.914 191.819C546.67 193.156 546.017 193.822 544.955 193.822C543.676 193.822 542.934 193.034 542.722 191.458L542.539 190.047L539.028 169.576L535.198 191.594C535.015 192.443 534.864 192.987 534.742 193.231C534.469 193.625 533.999 193.822 533.327 193.822C532.566 193.822 532.072 193.7 531.847 193.456C531.617 193.212 531.429 192.668 531.278 191.819L527.495 171.574C527.039 169.055 526.691 167.494 526.447 166.889C526.202 166.284 525.841 165.979 525.352 165.979H525.262L524.534 166.115H524.445C523.622 166.115 523.213 165.594 523.213 164.549C523.213 164.089 523.373 163.695 523.693 163.371C524.012 163.048 524.384 162.888 524.811 162.888C525.239 162.888 525.859 162.973 526.682 163.137C527.504 163.306 528.125 163.385 528.552 163.385C529.036 163.385 529.751 163.301 530.695 163.137C531.635 162.973 532.336 162.888 532.792 162.888C533.826 162.888 534.342 163.451 534.342 164.572C534.342 165.604 533.854 166.12 532.886 166.12C532.702 166.12 532.453 166.091 532.134 166.03C531.814 165.969 531.565 165.941 531.382 165.941C530.62 165.941 530.244 166.382 530.244 167.259V167.489L530.47 168.901L530.456 168.891Z" fill="white"/>
<path d="M558.405 184.222L563.693 164.98C563.965 164.07 564.195 163.493 564.379 163.249C564.712 162.734 565.229 162.476 565.93 162.476C566.78 162.476 567.358 162.682 567.664 163.09C567.969 163.498 568.35 164.628 568.806 166.481L574.046 187.27C574.413 188.574 574.714 189.432 574.958 189.84C575.202 190.248 575.536 190.455 575.959 190.455C576.081 190.455 576.354 190.426 576.781 190.365C576.871 190.365 576.979 190.351 577.101 190.319H577.327C578.3 190.319 578.784 190.834 578.784 191.866C578.784 193.048 578.267 193.639 577.233 193.639C577.11 193.639 576.41 193.517 575.137 193.273C574.497 193.151 573.83 193.09 573.13 193.09C572.585 193.09 571.833 193.179 570.874 193.362C569.915 193.545 569.271 193.634 568.938 193.634C568.51 193.634 568.134 193.465 567.796 193.132C567.462 192.799 567.293 192.391 567.293 191.904C567.293 190.844 567.796 190.314 568.797 190.314H569.755C570.456 190.314 570.803 189.836 570.803 188.874C570.803 188.368 570.714 187.735 570.531 186.984L569.708 183.659C569.586 183.181 569.464 182.89 569.342 182.782C569.22 182.679 568.961 182.623 568.566 182.623H563.049C562.41 182.623 561.954 183.153 561.681 184.208L560.859 187.42C560.647 188.264 560.539 188.944 560.539 189.456C560.539 190.028 560.812 190.314 561.361 190.314H562.41C563.382 190.314 563.866 190.853 563.866 191.927C563.866 193.067 563.364 193.634 562.363 193.634C561.968 193.634 561.343 193.545 560.492 193.362C559.641 193.179 558.974 193.09 558.485 193.09C557.818 193.09 557.028 193.179 556.117 193.362C555.205 193.545 554.566 193.634 554.204 193.634C553.109 193.634 552.563 193.071 552.563 191.951C552.563 190.83 553.033 190.314 553.978 190.314C554.161 190.314 554.401 190.342 554.707 190.403C555.007 190.464 555.238 190.492 555.388 190.492C555.872 190.492 556.337 190.037 556.779 189.127C557.221 188.218 557.761 186.581 558.396 184.213L558.405 184.222ZM568.571 178.533L566.066 167.297L563.147 178.533C563.086 178.777 563.058 178.941 563.058 179.035C563.058 179.429 563.345 179.626 563.923 179.626H567.889C568.406 179.626 568.665 179.443 568.665 179.082C568.665 178.993 568.632 178.81 568.576 178.538L568.571 178.533Z" fill="white"/>
<path d="M600.252 170.894C600.252 174.655 598.687 177.004 595.557 177.942C596.896 178.458 597.761 179.04 598.156 179.696C598.551 180.348 598.795 181.586 598.884 183.406V185.498L598.974 187.364C599.035 189.456 599.505 190.501 600.388 190.501C600.539 190.501 600.797 190.455 601.164 190.365C601.53 190.276 601.728 190.229 601.756 190.229C602.729 190.229 603.213 190.759 603.213 191.819C603.213 192.973 602.574 193.55 601.3 193.55H600.844L599.749 193.414L598.565 193.367C597.442 193.339 596.68 192.814 596.285 191.796C595.891 190.778 595.66 188.771 595.599 185.77V183.631C595.571 182.022 595.233 180.939 594.598 180.381C593.959 179.818 592.742 179.542 590.951 179.542H590.585L588.305 179.631C587.877 179.659 587.605 179.781 587.483 179.996C587.361 180.208 587.299 180.709 587.299 181.497V182.59C587.299 186.079 587.375 188.269 587.53 189.165C587.68 190.061 588.047 190.506 588.625 190.506C588.686 190.506 588.958 190.459 589.447 190.37C589.598 190.281 589.828 190.234 590.133 190.234C591.106 190.234 591.59 190.736 591.59 191.735C591.59 192.251 591.421 192.682 591.087 193.029C590.754 193.376 590.345 193.554 589.856 193.554C589.428 193.554 588.733 193.479 587.76 193.325C586.787 193.175 586.045 193.1 585.528 193.1C585.039 193.1 584.343 193.175 583.431 193.325C582.52 193.475 581.834 193.554 581.378 193.554C580.889 193.554 580.489 193.381 580.17 193.029C579.85 192.682 579.69 192.251 579.69 191.735C579.69 190.736 580.175 190.234 581.147 190.234C581.453 190.234 581.678 190.281 581.834 190.37C582.318 190.459 582.595 190.506 582.656 190.506C583.234 190.506 583.596 190.056 583.751 189.16C583.906 188.264 583.981 186.07 583.981 182.576V173.919C583.981 170.397 583.906 168.183 583.751 167.287C583.596 166.392 583.234 165.941 582.656 165.941C582.501 165.941 582.261 165.988 581.928 166.077C581.594 166.166 581.335 166.213 581.152 166.213C580.179 166.213 579.695 165.697 579.695 164.666C579.695 163.484 580.273 162.893 581.429 162.893C581.913 162.893 582.651 162.977 583.638 163.142C584.625 163.31 585.377 163.39 585.894 163.39C586.684 163.39 587.868 163.339 589.452 163.231C591.031 163.123 592.215 163.071 593.01 163.071C595.317 163.071 597.103 163.747 598.367 165.097C599.627 166.448 600.261 168.38 600.261 170.898L600.252 170.894ZM587.304 175.349C587.304 176.015 587.624 176.367 588.263 176.395L589.175 176.442C589.264 176.47 589.419 176.489 589.63 176.489C589.781 176.489 590.039 176.474 590.406 176.442C591.774 176.353 592.869 176.259 593.686 176.17C594.659 175.926 595.435 175.349 596.013 174.439C596.591 173.529 596.878 172.423 596.878 171.119C596.878 167.662 595.115 165.932 591.59 165.932C590.011 165.932 588.902 166.101 588.263 166.434C587.624 166.767 587.304 167.33 587.304 168.117V175.349Z" fill="white"/>
</g>
<defs>
<linearGradient id="paint0_linear_8939_822" x1="13.2581" y1="70.9556" x2="552.44" y2="141.255" gradientUnits="userSpaceOnUse">
<stop stop-color="#E72822"/>
<stop offset="1" stop-color="#EB008B"/>
</linearGradient>
<linearGradient id="paint1_linear_8939_822" x1="12.7458" y1="60.9993" x2="557.784" y2="132.061" gradientUnits="userSpaceOnUse">
<stop stop-color="#E72822"/>
<stop offset="1" stop-color="#EB008B"/>
</linearGradient>
<linearGradient id="paint2_linear_8939_822" x1="14.2684" y1="55.3951" x2="553.54" y2="125.708" gradientUnits="userSpaceOnUse">
<stop stop-color="#E72822"/>
<stop offset="1" stop-color="#EB008B"/>
</linearGradient>
<linearGradient id="paint3_linear_8939_822" x1="15.0628" y1="41.9121" x2="555.265" y2="112.348" gradientUnits="userSpaceOnUse">
<stop stop-color="#E72822"/>
<stop offset="1" stop-color="#EB008B"/>
</linearGradient>
<linearGradient id="paint4_linear_8939_822" x1="12.6332" y1="33.5034" x2="557.675" y2="104.565" gradientUnits="userSpaceOnUse">
<stop stop-color="#E72822"/>
<stop offset="1" stop-color="#EB008B"/>
</linearGradient>
<linearGradient id="paint5_linear_8939_822" x1="16.8438" y1="26.2625" x2="556.125" y2="96.5758" gradientUnits="userSpaceOnUse">
<stop stop-color="#E72822"/>
<stop offset="1" stop-color="#EB008B"/>
</linearGradient>
<linearGradient id="paint6_linear_8939_822" x1="16.6749" y1="15.2229" x2="557.013" y2="85.6727" gradientUnits="userSpaceOnUse">
<stop stop-color="#E72822"/>
<stop offset="1" stop-color="#EB008B"/>
</linearGradient>
<linearGradient id="paint7_linear_8939_822" x1="20.6364" y1="4.26155" x2="557.582" y2="74.2688" gradientUnits="userSpaceOnUse">
<stop stop-color="#E72822"/>
<stop offset="1" stop-color="#EB008B"/>
</linearGradient>
<clipPath id="clip0_8939_822">
<rect width="606" height="194" fill="white"/>
</clipPath>
</defs>
</svg>
